<svg xmlns="http://www.w3.org/2000/svg" width="256" height="256"><path fill="#1976D2" fill-opacity=".325" fill-rule="evenodd" d="M15 128v128h225V0H15z"/><path fill="#1976D2" fill-opacity=".721" fill-rule="evenodd" d="M56 5.603c-2.475 1.465-11.025 6.038-19 10.161-7.975 4.124-15.512 8.125-16.75 8.89C18.079 25.997 18 26.571 18 41.023c0 8.934.389 14.977.963 14.977.53 0 3.246-.9 6.037-2s5.507-2 6.037-2c.61 0 .963 33.293.963 90.891v90.892l4.25 1.718c2.337.945 4.813 1.942 5.5 2.216.995.395 1.25-18.995 1.25-94.954v-95.45l7.75-2.929 7.75-2.93 28.5.809c15.675.444 30.862 1.05 33.75 1.345l5.25.536V254h46.991l.254-104.25.255-104.25h64l.274-17.926c.15-9.86-.075-18.251-.5-18.647-.87-.81-15.078-1.354-89.774-3.436C118.9 4.694 87.625 3.794 78 3.49l-17.5-.551z"/><path fill="#1976D2" fill-opacity=".958" fill-rule="evenodd" d="M47.5 11.001c-7.15 3.871-16.487 8.834-20.75 11.029L19 26.022v14.489C19 48.48 19.395 55 19.878 55s2.395-.621 4.25-1.38 4.385-1.69 5.622-2.068l2.25-.687v181.736l4.527 2.2c2.489 1.209 4.737 2.199 4.995 2.199.257 0 .583-42.84.723-95.2l.255-95.2 6.5-2.55 6.5-2.55 31.5.361c17.325.199 33.3.661 35.5 1.028l4 .666.5 104.973.5 104.972h45l.255-104.785.254-104.784 31.996.693 31.995.693V9.18l-8.25-.57c-7.982-.552-98.334-3.131-145.25-4.147l-23-.498z"/></svg>